<svg width="33" height="26" viewBox="0 0 33 26" fill="none" xmlns="http://www.w3.org/2000/svg">
<path d="M12.0208 7.7784C12.4113 8.16894 13.0445 8.16891 13.435 7.7784C13.8255 7.38788 13.8255 6.75472 13.435 6.36418L7.77813 0.707328C7.38759 0.316788 6.75443 0.31681 6.36392 0.707328L0.707061 6.36418C0.316543 6.7547 0.316521 7.38786 0.707061 7.7784C1.0976 8.16894 1.73076 8.16891 2.12127 7.7784L7.07102 2.82865L12.0208 7.7784Z" fill="white"/>
<path d="M2.12132 17.3642C1.73078 16.9736 1.09763 16.9737 0.707107 17.3642C0.316588 17.7547 0.316567 18.3879 0.707107 18.7784L6.36396 24.4352C6.7545 24.8258 7.38766 24.8258 7.77817 24.4352L13.435 18.7784C13.8255 18.3879 13.8256 17.7547 13.435 17.3642C13.0445 16.9736 12.4113 16.9737 12.0208 17.3642L7.07107 22.3139L2.12132 17.3642Z" fill="white"/>
<path d="M30.0208 7.7784C30.4113 8.16894 31.0445 8.16891 31.435 7.7784C31.8255 7.38788 31.8255 6.75472 31.435 6.36418L25.7781 0.707328C25.3876 0.316788 24.7544 0.31681 24.3639 0.707328L18.7071 6.36418C18.3165 6.7547 18.3165 7.38786 18.7071 7.7784C19.0976 8.16894 19.7308 8.16891 20.1213 7.7784L25.071 2.82865L30.0208 7.7784Z" fill="#333333"/>
<path d="M20.1213 17.3642C19.7308 16.9736 19.0976 16.9737 18.7071 17.3642C18.3166 17.7547 18.3166 18.3879 18.7071 18.7784L24.364 24.4352C24.7545 24.8258 25.3877 24.8258 25.7782 24.4352L31.435 18.7784C31.8255 18.3879 31.8256 17.7547 31.435 17.3642C31.0445 16.9736 30.4113 16.9737 30.0208 17.3642L25.0711 22.3139L20.1213 17.3642Z" fill="#333333"/>
</svg>
