<svg width="21" height="21" viewBox="0 0 21 21" fill="none" xmlns="http://www.w3.org/2000/svg">
<path fill-rule="evenodd" clip-rule="evenodd" d="M1.81442 0.414482C1.49049 -0.0331035 0.863924 -0.133951 0.415466 0.189346C-0.0332372 0.512887 -0.134281 1.13799 0.189891 1.58582L3.05435 5.54377L3.06805 5.58821L5.30692 12.3159C5.45885 12.7723 5.95526 12.9986 6.36873 12.995C6.3976 12.9974 6.63419 12.9986 6.66379 12.9986H16.4775C16.5465 12.9986 16.9135 13.0118 16.9786 12.9986C17.4796 12.9986 17.6377 12.8241 17.8178 12.3613L20.9318 5.35966C21.1321 4.84468 20.8762 4.26523 20.3605 4.06525C20.155 3.98564 19.9849 3.99712 19.9849 3.99712H4.45208L4.40829 3.9981L1.81442 0.414482ZM6.98013 10.9983L5.31597 5.99746H18.5334L16.1981 10.9983H6.98013Z" fill="white"/>
<path fill-rule="evenodd" clip-rule="evenodd" d="M7.45844 21C9.11869 21 10.4648 19.6565 10.4648 17.9995C10.4648 16.3425 9.11869 14.999 7.45844 14.999C5.79819 14.999 4.45208 16.3425 4.45208 17.9995C4.45208 19.6565 5.79819 21 7.45844 21ZM7.45844 18.9997C8.01186 18.9997 8.46056 18.5518 8.46056 17.9995C8.46056 17.4472 8.01186 16.9993 7.45844 16.9993C6.90502 16.9993 6.45632 17.4472 6.45632 17.9995C6.45632 18.5518 6.90502 18.9997 7.45844 18.9997Z" fill="white"/>
<path fill-rule="evenodd" clip-rule="evenodd" d="M15.4754 21C17.1356 21 18.4818 19.6565 18.4818 17.9995C18.4818 16.3425 17.1356 14.999 15.4754 14.999C13.8151 14.999 12.469 16.3425 12.469 17.9995C12.469 19.6565 13.8151 21 15.4754 21ZM15.4754 18.9997C16.0288 18.9997 16.4775 18.5518 16.4775 17.9995C16.4775 17.4472 16.0288 16.9993 15.4754 16.9993C14.922 16.9993 14.4733 17.4472 14.4733 17.9995C14.4733 18.5518 14.922 18.9997 15.4754 18.9997Z" fill="white"/>
</svg>
