<svg width="5" height="10" viewBox="0 0 5 10" fill="none" xmlns="http://www.w3.org/2000/svg">
<path d="M0.139789 0.155376C-0.0464336 0.361243 -0.0464333 0.695018 0.139789 0.900884L3.84868 5.00102L0.139867 9.10107C-0.0463557 9.30693 -0.0463556 9.64071 0.139867 9.84658C0.326089 10.0524 0.628015 10.0524 0.814237 9.84658L4.8504 5.38465C4.85376 5.38114 4.85709 5.37757 4.86038 5.37393C4.92808 5.29909 4.97116 5.20735 4.98964 5.11099C5.02213 4.94218 4.97907 4.75915 4.86046 4.62802C4.85635 4.62348 4.85219 4.61904 4.84797 4.6147L0.814159 0.155376C0.627936 -0.0504901 0.326011 -0.0504899 0.139789 0.155376Z" fill="#888888"/>
</svg>
