<svg width="10" height="6" viewBox="0 0 10 6" fill="none" xmlns="http://www.w3.org/2000/svg">
<path d="M0.27935 4.35924C-0.0931167 4.73459 -0.0931167 5.34314 0.27935 5.71849C0.651875 6.09384 1.25575 6.09384 1.62828 5.71849L5.00004 2.32082L8.37174 5.71834C8.74421 6.09369 9.34814 6.09369 9.72061 5.71834C10.0931 5.343 10.0931 4.73444 9.72061 4.3591L5.69857 0.306186C5.69089 0.297856 5.68297 0.289628 5.67494 0.28151C5.62836 0.234595 5.57818 0.193538 5.52532 0.158348C5.28937 0.00137374 4.99945 -0.0388912 4.73585 0.0375538C4.58548 0.0810009 4.44349 0.162 4.32502 0.281364C4.31541 0.291021 4.3061 0.300833 4.29702 0.310791L0.27935 4.35924Z" fill="#888888"/>
</svg>
