<svg width="10" height="6" viewBox="0 0 10 6" fill="none" xmlns="http://www.w3.org/2000/svg">
<path d="M9.72065 1.64076C10.0931 1.26541 10.0931 0.656857 9.72065 0.28151C9.34813 -0.0938367 8.74425 -0.0938367 8.37172 0.28151L4.99996 3.67918L1.62826 0.281656C1.25579 -0.0936904 0.651861 -0.0936904 0.279394 0.281656C-0.0931308 0.657003 -0.0931308 1.26556 0.279394 1.6409L4.30143 5.69381C4.30911 5.70214 4.31703 5.71037 4.32506 5.71849C4.37164 5.7654 4.42182 5.80646 4.47468 5.84165C4.71063 5.99863 5.00055 6.03889 5.26415 5.96245C5.41452 5.919 5.55651 5.838 5.67498 5.71864C5.68459 5.70898 5.6939 5.69917 5.70298 5.68921L9.72065 1.64076Z" fill="#888888"/>
</svg>
