<svg width="34" height="22" viewBox="0 0 34 22" fill="none" xmlns="http://www.w3.org/2000/svg">
<path fill-rule="evenodd" clip-rule="evenodd" d="M12.9999 0H0V14V22H7.99988H25.9999H34V0H30.9999H12.9999ZM12.9999 0C14.1045 0 14.9999 0.895508 14.9999 2C14.9999 3.10449 14.1045 4 13 4C11.1149 4.18726 9.38367 4.90479 7.95398 6.00024L7.99988 6C12.4182 6 15.9999 9.58179 15.9999 14C15.9999 18.4182 12.4182 22 7.99988 22C3.92017 22 0.553711 18.9463 0.0617676 15H0.0351562C0.0134277 14.6919 0.00158691 14.3809 0.00012207 14.0676L0 14L0.00012207 13.9324C0.0344238 6.67993 5.58289 0.696777 12.6682 0.0273438C12.7761 0.00927734 12.887 0 12.9999 0ZM30.9999 0C30.887 0 30.7761 0.00927734 30.6682 0.0273438C23.5829 0.696777 18.0344 6.67993 18.0001 13.9324L18 14L18.0001 14.0676C18.0016 14.3809 18.0134 14.6919 18.0352 15H18.0618C18.5537 18.9463 21.9202 22 25.9999 22C30.4182 22 33.9999 18.4182 33.9999 14C33.9999 9.58179 30.4182 6 25.9999 6L25.954 6.00024C27.3837 4.90479 29.1149 4.18726 31 4C32.1045 4 32.9999 3.10449 32.9999 2C32.9999 0.895508 32.1045 0 30.9999 0Z" fill="white"/>
</svg>
